<svg id="svg" version="1.1" width="400" height="69.06474820143885" xmlns="http://www.w3.org/2000/svg" xmlns:xlink="http://www.w3.org/1999/xlink" style="display: block;"><g id="svgg"><path id="path0" d="" stroke="none" fill="#c6c6c6" fill-rule="evenodd"></path><path id="path1" d="M7.625 5.992 C 7.247 6.363,7.256 6.711,7.653 7.071 C 7.972 7.360,8.667 6.988,8.667 6.529 C 8.667 6.092,7.917 5.705,7.625 5.992 M19.125 6.013 C 18.788 6.210,18.743 6.677,19.033 6.967 C 19.605 7.538,20.446 6.752,19.904 6.153 C 19.575 5.789,19.526 5.780,19.125 6.013 M165.981 7.115 C 164.485 7.192,163.788 7.646,164.233 8.254 C 164.660 8.839,171.900 9.093,173.616 8.583 C 176.956 7.591,172.688 6.771,165.981 7.115 M312.636 7.330 C 312.391 7.404,312.027 7.579,311.828 7.718 L 311.467 7.971 311.934 8.277 C 312.866 8.889,319.086 8.808,319.863 8.174 L 320.250 7.858 319.500 7.516 C 318.701 7.152,313.678 7.016,312.636 7.330 M68.708 7.958 C 72.902 7.983,79.765 7.983,83.958 7.958 C 88.152 7.934,84.721 7.913,76.333 7.913 C 67.946 7.913,64.515 7.934,68.708 7.958 M103.868 7.957 C 104.482 7.989,105.532 7.989,106.201 7.957 C 106.870 7.926,106.367 7.899,105.083 7.899 C 103.800 7.899,103.253 7.925,103.868 7.957 M132.375 7.956 C 132.810 7.990,133.523 7.990,133.958 7.956 C 134.394 7.922,134.037 7.893,133.167 7.893 C 132.296 7.893,131.940 7.922,132.375 7.956 M274.544 7.953 C 274.797 7.991,275.172 7.990,275.377 7.951 C 275.582 7.911,275.375 7.880,274.917 7.881 C 274.458 7.882,274.291 7.915,274.544 7.953 M6.700 8.200 C 6.488 8.412,6.395 61.342,6.606 62.127 L 6.707 62.504 33.432 62.460 L 60.157 62.417 60.523 62.051 C 61.186 61.388,60.814 60.000,59.974 60.000 C 59.716 60.000,59.667 59.866,59.667 59.167 L 59.667 58.333 59.000 58.333 C 58.215 58.333,58.081 57.874,58.679 57.237 C 59.114 56.774,58.841 56.199,58.116 56.051 C 57.104 55.843,57.837 54.962,59.196 54.751 C 59.944 54.635,60.557 54.175,60.424 53.828 C 59.971 52.650,54.681 52.523,54.377 53.684 C 54.232 54.237,54.036 54.025,53.974 53.250 L 53.914 52.500 57.353 52.500 C 60.032 52.500,60.925 52.445,61.390 52.250 C 62.625 51.735,62.670 50.376,61.468 49.951 C 61.267 49.880,61.171 49.621,61.134 49.051 L 61.083 48.250 60.375 48.199 C 59.592 48.142,59.373 47.669,59.980 47.344 C 60.701 46.958,60.277 46.000,59.385 46.000 C 59.098 46.000,58.999 45.904,58.995 45.625 C 58.983 44.789,57.977 44.284,57.750 45.000 C 57.518 45.730,56.792 45.425,56.858 44.625 L 56.917 43.917 56.108 43.976 L 55.299 44.034 55.358 43.226 L 55.417 42.417 54.708 42.475 L 54.000 42.534 54.000 41.767 L 54.000 41.000 53.233 41.000 L 52.466 41.000 52.525 40.292 L 52.583 39.583 51.792 39.641 L 51.000 39.699 51.000 38.933 L 51.000 38.167 50.333 38.167 L 49.667 38.167 49.667 37.417 L 49.667 36.667 48.917 36.667 L 48.167 36.667 48.167 36.000 L 48.167 35.333 48.958 35.304 L 49.750 35.275 49.051 35.212 C 48.363 35.149,48.351 35.137,48.288 34.449 L 48.225 33.750 48.196 34.542 L 48.167 35.333 47.500 35.333 L 46.833 35.333 46.833 34.583 L 46.833 33.833 46.083 33.833 L 45.333 33.833 45.333 33.176 C 45.333 32.524,45.339 32.518,46.042 32.450 C 46.431 32.413,46.094 32.417,45.292 32.459 L 43.833 32.535 43.833 31.768 L 43.833 31.000 44.625 30.971 L 45.417 30.942 44.717 30.878 C 44.030 30.816,44.017 30.804,43.955 30.116 L 43.892 29.417 43.862 30.208 L 43.833 31.000 43.167 31.000 L 42.500 31.000 42.500 30.250 L 42.500 29.500 41.750 29.500 L 41.000 29.500 41.000 28.833 L 41.000 28.167 41.792 28.138 L 42.583 28.108 41.884 28.045 C 41.196 27.983,41.184 27.970,41.122 27.283 L 41.058 26.583 41.029 27.375 L 41.000 28.167 40.232 28.167 L 39.465 28.167 39.541 26.708 C 39.583 25.906,39.587 25.569,39.550 25.958 C 39.482 26.661,39.476 26.667,38.824 26.667 L 38.167 26.667 38.167 25.917 L 38.167 25.167 37.417 25.167 L 36.667 25.167 36.667 24.500 L 36.667 23.833 37.458 23.804 L 38.250 23.775 37.551 23.712 C 36.863 23.649,36.851 23.637,36.788 22.949 L 36.725 22.250 36.696 23.042 L 36.667 23.833 36.000 23.833 L 35.333 23.833 35.333 23.083 L 35.333 22.333 34.583 22.333 L 33.833 22.333 33.833 21.676 C 33.833 21.024,33.839 21.018,34.542 20.950 C 34.931 20.913,34.594 20.917,33.792 20.959 L 32.333 21.035 32.333 20.268 L 32.333 19.500 33.125 19.471 L 33.917 19.442 33.217 19.378 C 32.530 19.316,32.517 19.304,32.455 18.616 L 32.392 17.917 32.362 18.708 L 32.333 19.500 31.667 19.500 L 31.000 19.500 31.000 18.750 L 31.000 18.000 30.250 18.000 L 29.500 18.000 29.500 17.333 L 29.500 16.667 30.292 16.638 L 31.083 16.608 30.384 16.545 C 29.696 16.483,29.684 16.470,29.622 15.783 L 29.558 15.083 29.529 15.875 L 29.500 16.667 28.732 16.667 L 27.965 16.667 28.041 15.208 C 28.083 14.406,28.087 14.069,28.050 14.458 C 27.982 15.161,27.976 15.167,27.324 15.167 L 26.667 15.167 26.667 14.417 L 26.667 13.667 25.917 13.667 L 25.167 13.667 25.167 13.000 L 25.167 12.333 25.958 12.304 L 26.750 12.275 26.051 12.212 C 25.363 12.149,25.351 12.137,25.288 11.449 L 25.225 10.750 25.196 11.542 L 25.167 12.333 24.399 12.333 L 23.631 12.333 23.708 10.875 C 23.750 10.073,23.754 9.735,23.716 10.125 C 23.612 11.209,22.333 11.248,22.333 10.167 L 22.333 9.500 21.593 9.500 L 20.852 9.500 20.801 8.792 L 20.750 8.083 19.610 8.034 C 17.912 7.960,18.000 7.714,18.000 12.520 L 18.000 16.667 17.250 16.667 C 16.366 16.667,16.321 16.537,17.048 16.081 C 17.918 15.535,17.870 11.343,16.984 10.400 C 16.526 9.912,16.337 10.036,15.632 11.286 C 14.931 12.528,13.894 12.625,13.789 11.458 L 13.725 10.750 13.696 11.542 L 13.667 12.333 12.899 12.333 L 12.131 12.333 12.208 10.875 C 12.250 10.073,12.254 9.735,12.216 10.125 C 12.112 11.209,10.833 11.248,10.833 10.167 L 10.833 9.500 10.083 9.500 L 9.333 9.500 9.333 8.851 C 9.333 8.413,9.248 8.169,9.070 8.101 C 8.604 7.922,6.907 7.993,6.700 8.200 M160.400 8.738 C 159.342 9.199,159.697 9.924,161.110 10.188 C 162.491 10.446,162.337 10.743,160.794 10.799 C 159.241 10.855,159.000 10.985,159.000 11.770 L 159.000 12.333 158.083 12.333 C 156.980 12.333,156.922 12.144,157.792 11.389 L 158.417 10.846 157.980 10.406 L 157.542 9.967 157.095 10.554 C 156.848 10.877,156.432 11.216,156.169 11.308 C 155.150 11.663,154.876 13.167,155.830 13.167 C 156.018 13.167,156.167 13.277,156.167 13.417 C 156.167 13.597,155.981 13.667,155.500 13.667 L 154.833 13.667 154.833 14.417 C 154.833 14.897,154.759 15.172,154.625 15.182 C 154.510 15.190,154.192 15.209,153.917 15.224 C 153.452 15.248,153.413 15.301,153.365 15.958 L 153.314 16.667 152.574 16.667 L 151.833 16.667 151.833 17.333 C 151.833 17.815,151.764 18.000,151.583 18.000 C 151.446 18.000,151.333 17.893,151.333 17.762 C 151.333 16.608,149.709 16.951,149.415 18.167 C 149.359 18.396,149.074 18.735,148.782 18.919 C 148.282 19.235,148.247 19.322,148.201 20.358 C 148.154 21.419,148.135 21.465,147.683 21.555 C 146.501 21.792,146.311 24.667,147.478 24.667 C 148.214 24.667,148.419 24.266,148.368 22.930 C 148.323 21.753,148.343 21.667,148.660 21.667 C 148.981 21.667,149.000 21.766,149.000 23.417 C 149.000 25.069,148.981 25.167,148.659 25.167 C 148.472 25.167,148.134 25.351,147.909 25.576 L 147.500 25.985 147.500 34.159 L 147.500 42.333 148.250 42.333 L 149.000 42.333 149.000 44.083 C 149.000 45.712,148.977 45.833,148.673 45.833 C 147.866 45.833,147.891 47.585,148.704 48.020 C 149.117 48.241,149.833 47.589,149.833 46.991 C 149.833 46.778,149.948 46.667,150.167 46.667 C 150.796 46.667,150.648 48.538,150.000 48.782 C 149.266 49.059,149.287 49.876,150.040 50.334 C 150.338 50.514,150.771 50.942,151.003 51.285 C 151.246 51.641,151.637 51.969,151.921 52.053 C 152.194 52.133,152.568 52.435,152.752 52.724 C 152.970 53.065,153.248 53.269,153.544 53.303 C 153.903 53.344,154.000 53.443,154.000 53.767 C 154.000 54.057,154.165 54.275,154.563 54.510 C 154.932 54.728,155.161 55.011,155.224 55.330 C 155.423 56.326,156.876 56.636,157.103 55.732 C 157.252 55.138,159.000 55.119,159.000 55.711 C 159.000 55.992,158.830 56.162,158.333 56.377 C 157.967 56.536,157.667 56.737,157.667 56.825 C 157.667 57.000,159.070 57.667,159.438 57.667 C 159.564 57.667,159.669 57.798,159.672 57.958 C 159.696 59.262,163.355 59.704,164.009 58.482 C 164.170 58.183,164.446 58.167,169.405 58.167 C 175.090 58.167,174.833 58.211,174.833 57.236 C 174.833 56.835,174.839 56.833,176.667 56.833 C 178.409 56.833,178.500 56.850,178.500 57.178 C 178.500 57.507,178.440 57.518,177.201 57.410 C 175.207 57.236,174.134 58.309,175.624 58.988 C 176.768 59.509,178.478 58.896,178.495 57.958 C 178.499 57.711,178.664 57.667,179.571 57.667 C 180.584 57.667,180.668 57.636,181.113 57.105 C 181.372 56.796,181.826 56.419,182.122 56.269 C 182.419 56.118,182.786 55.752,182.938 55.456 C 183.090 55.159,183.478 54.688,183.800 54.408 L 184.385 53.898 183.943 53.550 C 183.240 52.998,183.346 52.500,184.167 52.500 L 184.833 52.500 184.833 51.750 C 184.833 50.843,185.220 50.735,185.929 51.444 L 186.372 51.887 187.013 51.194 C 187.365 50.812,187.756 50.500,187.881 50.500 C 188.711 50.500,189.051 49.275,188.334 48.867 C 187.871 48.604,187.835 48.515,187.834 47.625 C 187.833 46.408,188.272 46.273,188.754 47.341 C 188.921 47.712,189.117 48.053,189.189 48.097 C 189.360 48.203,190.000 46.948,190.000 46.507 C 190.000 46.295,190.110 46.165,190.292 46.163 C 191.622 46.146,192.079 43.708,190.884 43.003 C 190.428 42.734,190.332 42.596,190.442 42.371 C 190.520 42.213,190.601 38.258,190.622 33.583 C 190.643 28.908,190.662 24.990,190.664 24.875 C 190.665 24.760,190.814 24.667,190.994 24.667 C 191.480 24.667,191.702 24.106,191.575 23.202 C 191.284 21.137,190.197 21.191,189.754 23.292 C 189.513 24.439,189.167 23.924,189.167 22.417 L 189.167 21.000 188.500 21.000 L 187.833 21.000 187.833 20.000 C 187.833 18.914,188.188 18.597,188.496 19.407 C 188.742 20.054,189.228 20.226,189.693 19.829 L 190.083 19.497 189.458 18.939 C 189.115 18.632,188.833 18.276,188.833 18.147 C 188.833 17.867,188.060 17.000,187.810 17.000 C 187.713 17.000,187.424 17.225,187.167 17.500 C 186.552 18.158,186.364 18.131,186.302 17.375 C 186.252 16.768,186.229 16.748,185.542 16.699 L 184.833 16.648 184.833 15.907 L 184.833 15.167 184.176 15.167 C 183.522 15.167,183.519 15.163,183.468 14.458 C 183.417 13.753,183.413 13.750,182.708 13.699 C 181.862 13.637,181.774 13.303,182.440 12.671 L 182.874 12.259 182.270 11.736 C 181.938 11.449,181.583 10.977,181.482 10.687 C 181.112 9.624,179.948 9.720,179.726 10.830 C 179.611 11.402,179.234 11.608,179.117 11.162 C 179.046 10.889,178.844 10.840,177.606 10.798 C 176.066 10.746,175.780 10.423,177.097 10.222 C 179.139 9.911,178.549 8.500,176.377 8.500 C 175.710 8.500,175.619 8.548,175.450 8.996 L 175.263 9.492 169.214 9.538 C 162.759 9.586,162.833 9.590,162.833 9.246 C 162.833 8.594,161.412 8.297,160.400 8.738 M307.811 8.752 C 307.206 9.080,307.126 9.406,307.554 9.794 C 308.171 10.353,308.780 10.402,309.252 9.930 C 310.138 9.044,308.995 8.109,307.811 8.752 M322.023 8.958 C 321.486 9.477,321.629 9.804,322.548 10.153 C 323.507 10.518,325.463 9.864,325.230 9.257 C 324.918 8.444,322.762 8.244,322.023 8.958 M360.400 8.736 C 359.369 9.189,359.692 9.921,361.037 10.181 C 362.156 10.397,377.682 10.369,378.312 10.149 C 379.053 9.891,379.245 9.467,378.846 8.974 L 378.530 8.583 369.723 8.546 C 362.589 8.516,360.819 8.552,360.400 8.736 M59.208 9.617 C 58.496 9.756,58.417 10.189,58.417 13.950 C 58.417 16.625,58.469 17.536,58.633 17.700 C 58.802 17.869,60.376 17.927,65.842 17.965 L 72.833 18.014 72.833 37.415 L 72.833 56.816 76.333 56.826 L 79.833 56.836 79.846 38.127 C 79.854 27.836,79.898 19.512,79.945 19.629 C 80.324 20.571,91.888 20.522,92.674 19.575 C 93.232 18.902,91.805 18.700,86.055 18.640 L 80.694 18.583 80.264 18.987 L 79.833 19.391 79.833 18.696 L 79.833 18.000 86.572 18.000 C 90.641 18.000,93.485 17.934,93.748 17.834 L 94.184 17.668 94.134 13.923 C 94.089 10.591,94.050 10.145,93.786 9.881 C 93.503 9.598,60.587 9.347,59.208 9.617 M101.907 9.737 C 101.589 9.969,101.583 10.402,101.583 33.362 L 101.583 56.750 105.083 56.750 L 108.583 56.750 108.626 47.833 L 108.669 38.917 117.126 38.955 C 124.628 38.988,125.682 39.025,126.458 39.281 L 127.333 39.569 127.373 47.576 L 127.413 55.583 127.458 47.632 L 127.503 39.680 127.913 39.238 C 128.622 38.473,128.600 37.535,127.865 37.253 C 127.525 37.123,110.383 37.143,109.420 37.275 C 108.730 37.370,108.667 37.349,108.667 37.023 L 108.667 36.667 118.792 36.667 L 128.917 36.667 128.917 46.492 C 128.917 54.326,128.961 56.361,129.133 56.533 C 129.299 56.699,130.281 56.750,133.300 56.750 L 137.250 56.750 137.250 33.464 C 137.250 11.345,137.235 10.164,136.953 9.881 C 136.696 9.623,136.277 9.576,133.837 9.531 C 130.690 9.472,130.333 9.554,130.333 10.339 C 130.333 10.744,130.264 10.833,129.949 10.833 C 128.873 10.833,128.922 10.435,128.868 19.736 L 128.819 28.167 118.743 28.167 L 108.667 28.167 108.667 27.775 C 108.667 27.473,108.819 27.324,109.333 27.122 C 109.700 26.978,110.000 26.754,110.000 26.624 C 110.000 26.494,109.700 26.119,109.333 25.790 L 108.667 25.191 108.667 23.092 C 108.667 21.208,108.708 20.913,109.066 20.205 C 109.441 19.465,109.471 19.192,109.557 15.769 L 109.648 12.122 109.163 11.638 C 108.890 11.364,108.631 10.885,108.568 10.535 C 108.507 10.195,108.382 9.823,108.291 9.708 C 108.039 9.390,102.346 9.415,101.907 9.737 M273.389 9.616 C 273.190 9.655,272.778 9.944,272.472 10.258 C 272.167 10.572,271.785 10.831,271.625 10.832 C 271.391 10.833,271.333 10.981,271.333 11.583 C 271.333 12.438,270.911 12.622,270.378 12.000 C 270.017 11.579,269.634 11.576,269.258 11.991 C 268.975 12.303,268.981 12.331,269.399 12.719 C 269.815 13.104,269.833 13.198,269.833 14.894 L 269.833 16.667 269.167 16.667 L 268.500 16.667 268.500 18.083 C 268.500 19.792,267.981 20.244,267.771 18.718 C 267.710 18.267,267.513 17.774,267.306 17.555 L 266.948 17.174 266.581 17.570 C 265.840 18.370,265.905 20.333,266.673 20.333 C 266.977 20.333,267.000 20.455,267.000 22.083 L 267.000 23.833 266.351 23.833 C 265.567 23.833,265.500 23.965,265.500 25.514 C 265.500 26.427,265.448 26.667,265.250 26.667 C 265.099 26.667,265.000 26.512,265.000 26.275 C 265.000 24.238,263.426 24.029,263.219 26.039 C 263.113 27.073,263.298 27.500,263.854 27.500 C 264.140 27.500,264.167 27.649,264.167 29.250 L 264.167 31.000 263.617 31.000 C 262.810 31.000,262.667 31.243,262.667 32.617 C 262.667 33.993,262.275 34.386,262.076 33.208 C 261.904 32.189,261.827 32.008,261.485 31.825 C 261.067 31.602,260.855 31.742,260.566 32.432 C 260.126 33.485,260.377 34.833,261.012 34.833 C 261.097 34.833,261.167 35.583,261.167 36.500 L 261.167 38.167 260.500 38.167 L 259.833 38.167 259.833 39.661 C 259.833 41.443,259.540 41.580,259.098 40.006 C 258.605 38.247,257.665 38.539,257.416 40.529 C 257.297 41.485,257.535 42.000,258.095 42.000 C 258.362 42.000,258.352 41.942,258.352 43.417 C 258.352 45.500,258.412 45.333,257.667 45.333 L 257.000 45.333 257.000 46.833 C 257.000 47.658,256.944 48.332,256.875 48.331 C 256.550 48.324,256.370 48.019,256.263 47.294 C 256.014 45.600,254.814 45.792,254.593 47.562 C 254.461 48.617,254.578 48.971,255.102 49.103 C 255.691 49.251,255.732 52.500,255.144 52.500 C 254.819 52.500,254.797 52.436,254.889 51.761 C 255.096 50.254,254.308 49.283,253.519 50.072 C 253.112 50.480,253.086 50.595,253.132 51.838 C 253.177 53.080,253.157 53.167,252.840 53.167 C 251.882 53.167,251.412 55.079,252.182 55.848 L 252.530 56.197 252.932 55.819 C 253.274 55.498,253.333 55.286,253.333 54.388 C 253.333 53.444,253.368 53.333,253.667 53.333 C 253.977 53.333,254.000 53.444,254.000 54.936 L 254.000 56.539 254.654 57.174 C 255.385 57.883,255.818 57.901,256.174 57.236 C 256.394 56.825,257.770 56.714,261.197 56.830 C 262.416 56.872,262.667 56.517,262.667 54.750 C 262.667 53.971,262.734 53.333,262.816 53.333 C 262.994 53.333,263.167 53.743,263.167 54.168 C 263.167 54.336,263.369 54.715,263.617 55.010 L 264.068 55.546 264.534 54.987 C 265.261 54.117,264.864 53.000,263.829 53.000 C 263.409 53.000,263.286 52.551,263.678 52.449 C 263.963 52.374,264.000 52.208,264.000 51.016 C 264.000 49.978,264.053 49.667,264.231 49.667 C 264.459 49.667,264.660 50.148,264.664 50.706 C 264.670 51.473,265.567 51.908,266.042 51.375 C 266.733 50.602,266.515 48.667,265.738 48.667 C 265.548 48.667,265.500 48.333,265.500 47.000 C 265.500 45.409,265.516 45.333,265.856 45.333 C 266.181 45.333,266.203 45.397,266.111 46.072 C 265.825 48.155,267.244 48.837,267.868 46.917 L 268.085 46.250 273.917 46.203 C 277.667 46.173,280.152 46.223,280.875 46.343 L 282.000 46.530 282.000 47.339 C 282.000 47.947,282.097 48.261,282.390 48.601 L 282.779 49.054 283.140 48.694 C 283.413 48.420,283.500 48.132,283.500 47.500 C 283.500 46.728,283.530 46.667,283.905 46.667 C 284.302 46.667,284.312 46.698,284.364 48.254 C 284.423 50.025,284.402 50.167,284.079 50.167 C 282.966 50.167,283.195 53.047,284.326 53.274 C 284.826 53.374,284.833 53.390,284.833 54.412 C 284.833 55.204,284.905 55.513,285.138 55.724 C 285.818 56.339,286.500 55.767,286.500 54.581 C 286.500 53.949,286.551 53.833,286.827 53.833 C 287.123 53.833,287.158 53.970,287.202 55.292 L 287.250 56.750 288.042 56.801 C 288.477 56.829,288.833 56.926,288.833 57.017 C 288.833 57.968,294.315 58.582,295.016 57.708 C 295.570 57.018,295.667 56.625,295.667 55.065 C 295.667 53.294,296.031 53.033,296.262 54.639 C 296.515 56.398,297.806 56.479,298.049 54.750 C 298.233 53.444,297.930 50.771,297.536 50.217 L 297.176 49.712 296.190 50.181 C 295.175 50.665,294.833 51.150,294.833 52.108 C 294.833 52.389,294.739 52.500,294.500 52.500 C 294.195 52.500,294.167 52.389,294.167 51.184 C 294.167 49.779,294.098 49.667,293.236 49.667 C 292.607 49.667,292.603 46.427,293.232 46.270 C 293.831 46.119,293.949 45.220,293.557 43.791 C 293.281 42.783,292.466 43.132,292.056 44.435 C 291.632 45.779,291.356 45.606,291.298 43.958 L 291.250 42.583 290.625 42.532 L 290.000 42.480 290.000 40.665 C 290.000 39.215,290.051 38.821,290.253 38.708 C 290.816 38.393,291.096 36.707,290.662 36.245 C 289.833 35.363,288.922 36.001,289.100 37.338 C 289.200 38.096,289.181 38.167,288.871 38.167 C 288.561 38.167,288.528 38.041,288.466 36.625 L 288.400 35.083 288.965 34.547 C 289.544 33.998,289.592 33.584,289.227 32.291 C 288.876 31.049,287.672 31.936,287.668 33.441 C 287.667 33.736,287.385 34.000,287.070 34.000 C 287.031 34.000,287.000 33.325,287.000 32.500 L 287.000 31.000 286.345 31.000 L 285.690 31.000 285.637 29.519 C 285.574 27.782,285.613 27.500,285.917 27.500 C 286.752 27.500,286.872 25.666,286.090 24.860 C 285.755 24.514,285.671 24.495,285.354 24.692 C 284.977 24.928,284.925 25.046,284.760 26.026 C 284.566 27.179,284.167 26.963,284.164 25.703 C 284.161 24.007,284.082 23.833,283.314 23.833 L 282.667 23.833 282.667 22.083 C 282.667 20.482,282.693 20.333,282.980 20.333 C 283.808 20.333,283.921 18.327,283.134 17.581 L 282.750 17.217 282.375 17.617 C 282.169 17.837,281.999 18.182,281.998 18.384 C 281.994 19.012,281.804 19.500,281.564 19.500 C 281.390 19.500,281.333 19.218,281.333 18.347 C 281.333 16.798,281.267 16.667,280.482 16.667 L 279.833 16.667 279.833 14.851 C 279.833 13.428,279.885 13.016,280.072 12.944 C 280.587 12.747,280.678 12.235,280.267 11.850 L 279.881 11.487 279.482 11.907 C 278.864 12.559,278.529 12.466,278.468 11.626 C 278.431 11.121,278.336 10.904,278.135 10.866 C 277.980 10.837,277.580 10.563,277.247 10.258 C 276.472 9.548,274.995 9.303,273.389 9.616 M310.330 9.925 C 310.240 10.162,310.167 10.463,310.167 10.594 C 310.167 10.787,309.826 10.833,308.417 10.833 C 306.788 10.833,306.667 10.811,306.667 10.506 C 306.667 9.751,305.544 9.690,305.067 10.418 C 304.771 10.870,304.946 11.370,305.504 11.669 C 306.116 11.996,305.902 12.333,305.083 12.333 L 304.333 12.333 304.333 13.000 L 304.333 13.667 303.667 13.667 L 303.000 13.667 303.000 14.407 L 303.000 15.148 302.292 15.199 C 301.587 15.250,301.583 15.253,301.532 15.958 C 301.471 16.800,301.103 16.907,300.531 16.250 C 300.007 15.647,299.333 15.996,299.333 16.870 C 299.333 17.062,299.207 17.167,298.977 17.167 C 297.859 17.167,297.595 18.429,297.696 23.280 C 297.774 27.041,298.048 27.805,299.034 27.006 L 299.417 26.695 299.417 22.014 L 299.417 17.333 299.792 17.333 L 300.167 17.333 300.167 22.667 L 300.167 28.000 300.833 28.000 L 301.500 28.000 301.500 29.083 C 301.500 30.056,301.466 30.167,301.167 30.167 C 300.947 30.167,300.833 30.056,300.833 29.842 C 300.833 29.663,300.657 29.327,300.442 29.095 L 300.052 28.674 299.678 29.071 C 299.207 29.573,299.437 30.129,300.176 30.277 C 300.510 30.344,300.667 30.475,300.667 30.687 C 300.667 31.131,301.259 31.667,301.750 31.667 C 302.080 31.667,302.167 31.751,302.167 32.071 C 302.167 32.326,302.374 32.650,302.727 32.946 C 303.036 33.205,303.420 33.699,303.581 34.043 C 303.767 34.443,304.024 34.708,304.288 34.774 C 304.549 34.840,304.789 35.085,304.936 35.436 C 305.253 36.196,305.934 36.377,306.361 35.817 C 306.945 35.051,307.036 34.978,307.281 35.072 C 307.416 35.124,307.821 35.167,308.180 35.167 C 308.911 35.167,309.005 35.362,308.481 35.793 C 307.516 36.589,307.492 36.674,308.076 37.258 C 308.610 37.792,308.769 37.775,309.394 37.116 L 309.917 36.566 311.458 36.633 C 312.875 36.694,313.000 36.727,313.000 37.039 C 313.000 37.339,312.923 37.367,312.311 37.285 C 311.018 37.111,310.226 37.904,310.923 38.673 C 311.406 39.208,313.332 39.012,313.565 38.405 C 313.694 38.069,316.000 38.060,316.000 38.396 C 316.000 38.522,315.781 38.669,315.513 38.722 C 315.245 38.776,314.865 38.992,314.668 39.202 L 314.311 39.583 314.857 40.042 C 315.571 40.640,316.062 40.628,316.526 40.000 C 316.863 39.544,316.982 39.500,317.865 39.500 C 318.918 39.500,319.120 39.701,318.339 39.973 C 317.435 40.288,317.441 41.672,318.348 42.043 C 318.917 42.275,319.578 43.792,319.382 44.417 C 319.325 44.600,319.197 45.228,319.097 45.813 L 318.917 46.877 317.583 47.365 C 315.524 48.119,315.527 48.404,317.599 49.026 C 319.295 49.536,319.182 49.604,316.458 49.713 C 315.152 49.765,313.846 49.894,313.555 49.999 C 313.160 50.142,312.866 50.142,312.389 50.001 C 312.037 49.897,310.081 49.769,308.042 49.715 C 303.497 49.597,302.944 49.314,306.741 49.051 C 309.104 48.887,310.000 48.640,310.000 48.154 C 310.000 47.437,303.898 47.080,303.591 47.779 C 303.442 48.119,303.302 48.145,301.324 48.196 C 298.473 48.269,298.667 48.006,298.667 51.820 C 298.667 55.227,298.695 55.333,299.617 55.333 C 300.133 55.333,300.167 55.369,300.167 55.911 C 300.167 56.716,300.486 56.833,302.674 56.833 C 304.303 56.833,304.523 56.866,304.434 57.097 C 304.379 57.242,304.333 57.376,304.333 57.394 C 304.333 57.412,303.820 57.399,303.192 57.363 C 301.492 57.267,300.348 57.929,301.002 58.631 C 301.699 59.378,304.315 59.355,304.921 58.596 L 305.263 58.167 311.965 58.167 L 318.667 58.167 318.667 57.500 L 318.667 56.833 320.399 56.833 C 322.094 56.833,322.133 56.842,322.232 57.239 C 322.375 57.808,322.937 57.945,323.478 57.543 C 324.111 57.072,324.122 56.600,323.510 56.148 C 322.770 55.601,322.849 55.333,323.750 55.333 L 324.500 55.333 324.500 54.583 L 324.500 53.833 325.572 53.833 C 326.481 53.833,326.660 53.882,326.745 54.151 C 326.938 54.759,327.685 54.755,328.012 54.144 C 328.149 53.888,328.089 53.741,327.693 53.372 C 327.239 52.947,327.211 52.853,327.289 51.967 L 327.373 51.017 328.062 50.967 L 328.750 50.917 328.798 49.542 C 328.841 48.322,328.882 48.167,329.161 48.167 C 329.442 48.167,329.466 48.263,329.383 49.065 C 329.266 50.202,329.837 50.769,330.644 50.318 C 331.367 49.914,331.259 47.824,330.503 47.584 C 330.200 47.488,330.177 47.277,330.132 44.199 C 330.076 40.440,330.057 40.604,330.588 40.362 C 331.345 40.017,331.294 38.758,330.507 38.337 C 330.115 38.127,329.333 38.795,329.333 39.340 C 329.333 39.500,329.221 39.674,329.083 39.727 C 328.877 39.806,328.833 39.635,328.833 38.748 C 328.833 37.745,328.861 37.666,329.244 37.570 C 330.033 37.372,329.995 36.433,329.179 35.951 C 328.911 35.792,328.458 35.367,328.172 35.007 C 327.887 34.646,327.514 34.307,327.344 34.254 C 327.175 34.200,326.940 33.925,326.823 33.643 C 326.692 33.326,326.423 33.065,326.121 32.959 C 325.809 32.850,325.548 32.589,325.402 32.240 C 325.061 31.423,323.667 31.314,323.667 32.103 C 323.667 32.452,323.244 32.587,322.345 32.526 C 321.555 32.472,320.983 31.833,321.724 31.833 C 322.135 31.833,322.547 31.211,322.434 30.762 C 322.219 29.902,320.939 29.770,320.734 30.586 C 320.633 30.992,320.599 31.000,318.982 31.000 L 317.333 31.000 317.333 30.512 C 317.333 29.709,316.970 29.500,315.571 29.500 C 314.114 29.500,313.768 29.107,315.094 28.958 C 317.239 28.716,316.805 27.167,314.592 27.167 C 313.847 27.167,313.500 27.389,313.500 27.867 C 313.500 28.122,313.352 28.167,312.500 28.167 C 311.338 28.167,311.237 27.974,312.155 27.506 C 313.290 26.927,313.171 26.081,311.896 25.660 C 311.500 25.529,311.301 25.343,311.224 25.029 C 310.973 24.012,310.357 23.539,309.732 23.885 C 308.584 24.520,308.764 25.788,310.084 26.360 C 310.583 26.576,310.582 26.577,309.690 26.631 C 308.588 26.698,308.713 26.976,308.659 24.333 C 308.590 20.949,308.646 19.333,308.833 19.333 C 308.925 19.333,309.000 19.514,309.000 19.735 C 309.000 20.569,310.205 21.158,310.917 20.671 C 311.008 20.609,311.434 20.428,311.862 20.270 C 312.290 20.112,312.731 19.874,312.841 19.741 C 313.198 19.310,317.033 19.405,317.989 19.869 C 319.580 20.640,322.500 20.450,322.500 19.575 C 322.500 19.260,322.740 19.238,325.167 19.331 L 327.417 19.417 327.363 17.958 C 327.305 16.373,327.615 15.917,327.987 17.043 C 328.403 18.305,329.549 18.046,329.774 16.639 C 329.851 16.153,330.003 15.933,330.437 15.677 C 331.212 15.219,331.289 13.697,330.562 13.221 C 329.943 12.815,329.500 13.354,329.500 14.513 C 329.500 15.151,329.430 15.359,329.167 15.500 C 328.844 15.673,328.833 15.627,328.833 14.006 L 328.833 12.333 327.951 12.333 C 327.100 12.333,327.063 12.314,326.909 11.792 C 326.793 11.395,326.638 11.235,326.333 11.194 C 326.104 11.164,325.845 11.070,325.758 10.986 C 325.671 10.902,324.682 10.833,323.560 10.833 L 321.520 10.833 321.468 10.208 L 321.417 9.583 315.955 9.539 L 310.493 9.495 310.330 9.925 M202.417 9.947 C 202.142 10.094,201.854 10.320,201.778 10.449 C 201.702 10.579,201.458 10.754,201.236 10.839 L 200.832 10.992 200.874 33.871 L 200.917 56.750 204.500 56.750 C 208.484 56.750,208.938 56.684,209.173 56.068 C 209.270 55.810,209.347 49.833,209.368 40.781 C 209.387 32.606,209.428 26.664,209.458 27.577 C 209.516 29.345,209.587 29.493,210.375 29.497 L 210.833 29.500 210.833 31.149 C 210.833 32.761,210.824 32.799,210.423 32.900 C 209.479 33.137,209.466 35.391,210.396 37.358 C 210.649 37.893,210.833 38.573,210.833 38.974 L 210.833 39.667 211.511 39.667 C 213.228 39.667,213.830 37.829,212.312 37.222 C 211.654 36.959,211.635 36.930,211.740 36.350 C 211.800 36.020,211.894 35.319,211.948 34.792 C 212.091 33.395,212.333 33.620,212.333 35.149 C 212.333 36.578,212.393 36.667,213.347 36.667 L 213.833 36.667 213.833 38.407 C 213.833 39.968,213.798 40.172,213.495 40.385 C 212.600 41.012,212.647 43.242,213.568 43.865 C 214.068 44.204,214.708 42.845,214.559 41.760 C 214.464 41.070,214.486 41.000,214.799 41.000 C 215.117 41.000,215.147 41.112,215.197 42.517 C 215.255 44.186,215.242 44.239,214.725 44.400 C 213.866 44.668,214.248 47.500,215.143 47.500 C 215.432 47.500,215.953 46.687,216.051 46.084 C 216.258 44.811,216.579 45.064,216.632 46.542 C 216.685 47.995,216.777 48.160,217.542 48.164 L 218.000 48.167 218.000 49.822 C 218.000 51.331,217.970 51.487,217.667 51.583 C 217.245 51.717,217.095 52.309,217.231 53.301 C 217.365 54.275,217.810 54.780,218.302 54.517 C 218.660 54.325,218.737 54.150,218.910 53.125 C 219.120 51.881,219.499 52.355,219.509 53.875 C 219.529 56.723,219.670 56.810,224.278 56.824 C 228.285 56.836,228.000 56.958,228.000 55.232 C 228.000 53.944,228.026 53.833,228.333 53.833 C 228.589 53.833,228.667 53.944,228.667 54.308 C 228.667 55.617,229.372 56.422,229.962 55.785 C 230.728 54.959,230.570 53.000,229.738 53.000 C 229.548 53.000,229.500 52.667,229.500 51.333 L 229.500 49.667 230.199 49.667 C 230.793 49.667,230.856 49.698,230.623 49.875 C 229.901 50.423,229.942 51.946,230.691 52.346 C 231.756 52.916,232.266 50.960,231.324 49.917 C 231.056 49.620,230.906 48.265,230.988 46.875 C 231.025 46.241,231.464 46.756,231.556 47.542 C 231.697 48.755,232.206 49.203,232.784 48.625 C 233.521 47.888,233.504 46.404,232.754 46.002 C 232.346 45.784,232.333 45.726,232.333 44.055 L 232.333 42.333 232.769 42.333 C 233.142 42.333,233.190 42.388,233.099 42.708 C 232.796 43.773,232.807 43.923,233.229 44.378 C 233.749 44.940,233.904 44.944,234.434 44.414 C 235.027 43.821,234.752 41.833,234.077 41.833 C 233.881 41.833,233.833 41.540,233.833 40.339 C 233.833 39.078,233.873 38.859,234.083 38.940 C 234.221 38.992,234.333 39.166,234.333 39.326 C 234.333 40.409,235.120 41.244,235.671 40.746 C 236.355 40.127,236.145 38.671,235.371 38.664 C 234.758 38.659,234.551 38.365,234.958 38.079 C 235.294 37.842,235.333 37.674,235.333 36.491 C 235.333 35.425,235.382 35.167,235.583 35.167 C 235.749 35.167,235.833 35.332,235.833 35.656 C 235.833 36.382,236.107 36.971,236.658 37.435 L 237.150 37.849 237.200 46.550 C 237.254 55.986,237.256 56.000,238.178 56.000 C 239.102 56.000,239.076 56.335,239.172 43.441 C 239.264 31.098,239.244 30.668,238.575 30.229 C 237.979 29.839,237.951 28.001,238.542 27.997 C 239.335 27.992,239.412 27.803,239.500 25.631 C 239.546 24.505,239.621 31.046,239.667 40.167 L 239.750 56.750 243.722 56.750 C 247.462 56.750,247.708 56.731,247.930 56.426 C 248.261 55.974,248.289 11.263,247.958 11.055 C 247.844 10.982,246.925 10.897,245.917 10.865 C 244.392 10.816,243.944 10.738,243.259 10.403 C 242.036 9.805,239.675 9.808,239.204 10.408 C 238.939 10.744,238.710 10.824,237.900 10.866 L 236.917 10.917 236.868 12.292 L 236.820 13.667 236.249 13.667 C 235.502 13.667,235.333 14.002,235.333 15.489 C 235.333 16.875,234.946 17.186,234.749 15.958 C 234.415 13.886,233.234 14.093,232.879 16.286 C 232.784 16.871,233.162 17.500,233.609 17.500 C 233.783 17.500,233.833 17.895,233.833 19.250 L 233.833 21.000 233.152 21.000 L 232.470 21.000 232.902 20.487 C 233.620 19.633,233.117 17.774,232.256 18.104 C 231.467 18.407,231.323 19.787,232.000 20.558 C 232.468 21.091,232.500 21.215,232.500 22.480 C 232.500 24.165,232.212 24.284,231.744 22.792 C 231.367 21.592,230.896 21.329,230.422 22.052 C 230.041 22.633,230.002 24.136,230.361 24.388 C 230.513 24.496,230.743 24.658,230.871 24.750 C 231.288 25.049,231.068 28.167,230.629 28.167 C 230.319 28.167,230.300 28.096,230.401 27.332 C 230.572 26.047,229.729 25.271,228.979 26.021 C 228.464 26.536,228.624 28.095,229.242 28.590 C 229.636 28.904,229.667 29.030,229.667 30.312 C 229.667 31.914,229.434 32.055,228.964 30.737 C 228.488 29.405,227.955 29.228,227.419 30.225 C 226.996 31.010,227.135 31.362,228.042 31.795 C 228.868 32.190,229.070 32.500,228.500 32.500 C 228.193 32.500,228.167 32.611,228.167 33.917 C 228.167 35.656,227.537 35.969,227.497 34.250 C 227.477 33.409,226.650 32.943,226.166 33.501 C 225.499 34.270,225.623 36.167,226.339 36.167 C 226.644 36.167,226.667 36.288,226.667 37.907 L 226.667 39.647 226.042 39.698 L 225.417 39.750 225.368 41.124 C 225.321 42.466,225.310 42.499,224.868 42.596 C 224.067 42.771,224.000 42.817,223.988 43.203 C 223.949 44.494,223.689 44.042,223.679 42.667 C 223.669 41.085,223.669 41.083,224.158 40.805 C 224.494 40.614,224.680 40.350,224.753 39.957 C 224.812 39.644,225.017 39.282,225.208 39.152 C 226.287 38.420,226.391 37.835,225.587 37.018 L 225.195 36.619 224.015 37.768 C 223.367 38.400,222.833 39.029,222.829 39.167 C 222.793 40.428,222.345 40.103,222.339 38.811 C 222.334 37.534,222.369 37.363,222.651 37.289 C 223.106 37.170,223.433 35.556,223.166 34.747 C 222.662 33.222,221.394 33.904,221.446 35.671 C 221.471 36.552,221.438 36.667,221.154 36.667 C 220.859 36.667,220.833 36.534,220.833 35.037 L 220.833 33.406 221.354 33.210 C 221.870 33.015,221.874 33.006,221.802 32.009 C 221.641 29.781,220.000 29.795,220.000 32.025 C 220.000 32.336,219.914 32.500,219.750 32.500 C 219.550 32.500,219.500 32.251,219.500 31.262 C 219.500 29.863,219.291 29.500,218.488 29.500 L 218.000 29.500 218.000 27.833 C 218.000 26.500,218.048 26.167,218.238 26.167 C 219.015 26.167,219.233 24.231,218.542 23.458 C 217.951 22.797,217.167 23.530,217.167 24.745 C 217.167 25.050,217.078 25.167,216.845 25.167 C 216.555 25.167,216.518 25.019,216.470 23.653 C 216.415 22.094,216.512 21.667,216.919 21.667 C 217.701 21.667,217.663 19.483,216.871 18.904 C 216.310 18.494,215.667 19.351,215.667 20.507 C 215.667 20.760,215.555 21.007,215.417 21.060 C 214.895 21.260,215.074 18.198,215.617 17.632 C 216.469 16.743,215.839 14.795,214.868 15.315 C 214.110 15.720,214.062 17.239,214.789 17.792 C 215.023 17.969,214.959 18.000,214.365 18.000 L 213.667 18.000 213.667 16.333 C 213.667 15.000,213.714 14.667,213.905 14.667 C 214.737 14.667,214.894 12.707,214.129 11.881 C 213.558 11.265,212.833 12.044,212.833 13.275 C 212.833 13.556,212.739 13.667,212.500 13.667 C 212.195 13.667,212.167 13.556,212.167 12.351 C 212.167 10.905,212.115 10.833,211.081 10.833 C 210.668 10.833,210.495 10.746,210.416 10.498 C 210.145 9.644,203.802 9.207,202.417 9.947 M4.658 10.426 L 4.250 10.860 4.204 35.222 C 4.178 48.621,4.195 59.739,4.241 59.930 C 4.430 60.709,5.736 60.710,5.925 59.931 C 5.971 59.740,5.988 48.616,5.963 35.212 L 5.917 10.841 5.492 10.416 L 5.067 9.991 4.658 10.426 M380.262 10.262 C 380.118 10.406,380.000 10.593,380.000 10.679 C 380.000 10.772,375.922 10.833,369.687 10.833 C 358.460 10.833,358.492 10.831,357.993 11.763 C 357.557 12.578,357.635 56.276,358.074 56.597 C 358.251 56.727,358.570 56.833,358.782 56.833 C 359.069 56.833,359.167 56.928,359.169 57.208 C 359.175 58.058,359.270 58.083,362.488 58.083 C 366.554 58.083,366.066 59.360,366.167 48.453 C 366.220 42.689,366.303 39.649,366.397 40.058 C 366.510 40.553,366.653 40.737,367.026 40.867 C 367.504 41.034,367.506 41.039,367.176 41.326 C 366.603 41.822,366.581 42.145,366.667 48.780 C 366.756 55.746,366.792 56.000,367.678 56.000 C 368.548 56.000,368.577 55.787,368.667 48.791 C 368.753 42.025,368.717 41.564,368.063 41.199 C 367.704 40.998,368.354 40.896,370.845 40.764 C 372.772 40.662,372.966 40.597,373.032 40.028 L 373.083 39.583 376.337 39.538 L 379.591 39.493 379.781 39.997 C 380.040 40.682,380.858 40.698,381.654 40.034 L 382.212 39.568 381.677 39.117 C 381.382 38.869,380.997 38.667,380.821 38.667 C 380.644 38.667,380.500 38.554,380.500 38.417 C 380.500 37.928,382.406 38.077,382.636 38.583 C 382.972 39.320,384.500 38.898,384.500 38.068 C 384.500 37.930,384.756 37.709,385.069 37.578 C 385.483 37.406,385.692 37.177,385.836 36.743 C 385.944 36.414,386.201 36.068,386.406 35.975 C 386.611 35.881,386.902 35.596,387.053 35.341 C 387.206 35.081,387.531 34.832,387.788 34.775 C 388.816 34.550,389.096 33.212,388.177 32.920 C 387.881 32.826,387.833 32.674,387.833 31.822 C 387.833 30.523,388.231 30.459,388.822 31.665 L 389.228 32.492 389.614 31.812 C 390.103 30.951,390.098 30.739,389.583 30.401 L 389.167 30.128 389.167 24.907 C 389.167 21.606,389.105 19.648,389.000 19.583 C 388.692 19.393,388.830 19.163,389.422 18.881 C 390.232 18.494,390.367 17.906,389.766 17.388 C 389.044 16.767,388.706 16.884,388.231 17.917 L 387.924 18.583 387.870 17.625 L 387.817 16.667 387.085 16.667 L 386.352 16.667 386.301 15.958 C 386.250 15.253,386.247 15.250,385.542 15.199 L 384.833 15.148 384.833 14.407 L 384.833 13.667 384.167 13.667 C 383.370 13.667,383.274 13.315,383.892 12.663 L 384.283 12.250 383.883 11.875 C 383.663 11.669,383.337 11.500,383.158 11.500 C 382.952 11.500,382.833 11.386,382.833 11.189 C 382.833 10.191,380.995 9.528,380.262 10.262 M56.626 11.706 C 55.924 12.238,55.706 15.182,56.327 15.744 C 56.736 16.114,57.412 15.976,57.684 15.467 C 58.305 14.307,57.407 11.113,56.626 11.706 M95.460 11.706 C 94.758 12.238,94.539 15.182,95.160 15.744 C 95.569 16.114,96.245 15.976,96.518 15.467 C 97.138 14.307,96.240 11.113,95.460 11.706 M99.793 11.706 C 99.640 11.822,99.437 12.128,99.341 12.386 C 99.089 13.063,99.099 54.590,99.351 55.312 C 99.626 56.101,100.033 56.247,100.519 55.730 L 100.917 55.306 100.917 33.824 L 100.917 12.341 100.494 11.918 C 100.137 11.561,100.027 11.528,99.793 11.706 M138.626 11.706 C 138.473 11.822,138.270 12.128,138.174 12.386 C 137.923 13.063,137.932 54.590,138.184 55.312 C 138.459 56.101,138.866 56.247,139.352 55.730 L 139.750 55.306 139.750 33.824 L 139.750 12.341 139.327 11.918 C 138.971 11.561,138.860 11.528,138.626 11.706 M198.734 12.017 C 198.425 12.359,198.417 12.959,198.417 33.833 C 198.417 57.377,198.360 56.000,199.322 56.000 C 200.308 56.000,200.250 57.389,200.250 33.833 C 200.250 12.755,200.245 12.411,199.921 12.042 C 199.511 11.573,199.143 11.566,198.734 12.017 M234.777 11.970 C 234.521 12.253,234.526 12.298,234.841 12.637 C 235.265 13.091,235.417 13.092,235.733 12.641 C 236.243 11.913,235.378 11.306,234.777 11.970 M382.667 12.000 C 382.667 12.299,382.556 12.333,381.583 12.333 C 380.611 12.333,380.500 12.299,380.500 12.000 C 380.500 11.701,380.611 11.667,381.583 11.667 C 382.556 11.667,382.667 11.701,382.667 12.000 M181.293 12.125 C 181.340 12.269,181.150 12.333,180.681 12.333 C 180.036 12.333,179.852 12.203,180.119 11.937 C 180.307 11.748,181.217 11.895,181.293 12.125 M127.373 18.645 L 127.333 25.206 126.667 25.873 C 125.848 26.692,125.847 26.714,126.647 27.074 C 127.766 27.579,128.459 26.729,127.752 25.720 C 127.544 25.424,127.496 24.283,127.458 18.725 L 127.413 12.083 127.373 18.645 M15.167 13.000 L 15.167 13.667 14.417 13.667 L 13.667 13.667 13.667 13.000 L 13.667 12.333 14.417 12.333 L 15.167 12.333 15.167 13.000 M268.205 13.786 C 267.936 13.884,267.500 14.717,267.500 15.133 C 267.500 15.909,268.816 16.322,269.172 15.657 C 269.530 14.988,268.797 13.571,268.205 13.786 M280.867 14.080 C 280.303 14.729,280.244 15.237,280.685 15.648 C 281.803 16.689,282.848 15.173,281.792 14.042 C 281.354 13.572,281.307 13.574,280.867 14.080 M15.365 14.583 C 15.402 14.904,15.373 15.167,15.300 15.167 C 15.227 15.167,15.167 14.904,15.167 14.583 C 15.167 14.262,15.196 14.000,15.232 14.000 C 15.268 14.000,15.328 14.262,15.365 14.583 M170.366 17.202 L 171.014 17.904 173.674 17.972 L 176.333 18.040 176.333 18.687 L 176.333 19.333 177.083 19.333 C 177.994 19.333,178.169 19.780,177.292 19.864 C 176.114 19.978,176.571 21.870,177.827 22.082 C 178.579 22.209,178.564 22.180,178.324 23.045 C 178.017 24.151,178.933 25.035,179.760 24.430 C 180.023 24.237,180.076 24.020,180.044 23.263 C 180.009 22.452,180.044 22.333,180.315 22.333 C 180.645 22.333,180.957 25.510,180.640 25.638 C 180.565 25.668,180.338 25.828,180.134 25.993 L 179.763 26.294 179.753 33.923 C 179.742 41.842,179.755 42.000,180.415 42.000 C 180.734 42.000,180.756 42.148,180.697 43.830 L 180.643 45.333 179.956 45.333 C 179.372 45.333,179.310 45.302,179.544 45.125 C 180.268 44.575,180.224 43.054,179.473 42.652 C 178.551 42.159,177.944 43.706,178.650 44.751 C 179.011 45.287,179.167 45.714,179.167 46.175 C 179.167 46.973,178.960 47.030,178.743 46.292 C 178.592 45.778,178.543 45.751,177.803 45.760 C 176.215 45.780,175.828 47.419,177.334 47.750 C 178.092 47.917,177.932 48.128,176.999 48.192 C 175.937 48.266,175.833 48.225,175.833 47.739 C 175.833 47.025,174.461 47.024,172.754 47.738 C 171.706 48.175,172.286 48.761,174.096 49.094 C 176.445 49.527,172.704 49.814,166.292 49.695 C 162.960 49.633,162.069 49.305,164.721 49.118 C 168.325 48.864,168.348 47.589,164.753 47.350 C 163.291 47.252,163.247 47.237,162.919 46.715 C 162.735 46.421,162.265 46.026,161.875 45.839 C 161.485 45.652,161.167 45.430,161.167 45.347 C 161.167 45.263,160.944 44.984,160.671 44.727 C 160.319 44.395,160.120 43.990,159.987 43.338 C 159.579 41.343,158.664 41.283,158.105 43.215 C 157.759 44.409,157.500 44.182,157.500 42.686 C 157.500 41.255,157.350 41.000,156.511 41.000 C 156.168 41.000,156.167 40.965,156.167 33.833 L 156.167 26.667 156.833 26.667 L 157.500 26.667 157.500 25.167 C 157.500 23.544,157.682 23.265,158.096 24.256 C 158.746 25.810,160.097 25.135,160.019 23.296 C 160.004 22.933,159.894 22.815,159.470 22.705 C 158.916 22.562,158.921 22.578,158.985 21.167 C 159.010 20.622,159.459 20.788,159.667 21.418 C 160.042 22.554,161.210 22.414,162.505 21.078 C 162.813 20.760,163.226 20.500,163.422 20.500 C 163.922 20.500,165.872 19.850,166.136 19.595 C 166.395 19.345,165.033 18.684,163.962 18.540 C 162.549 18.351,163.300 18.042,165.375 17.958 C 167.749 17.863,168.387 17.675,168.671 16.989 C 168.974 16.258,169.563 16.332,170.366 17.202 M11.825 18.004 L 12.417 18.008 11.799 18.366 C 11.064 18.792,10.913 19.283,11.166 20.414 C 11.290 20.965,11.340 26.649,11.326 38.480 L 11.306 55.743 11.671 56.122 C 12.159 56.628,12.543 56.598,13.225 56.000 L 13.794 55.500 30.295 55.500 L 46.795 55.500 47.073 55.924 C 47.676 56.845,48.806 56.811,49.281 55.858 L 49.583 55.250 49.639 55.833 C 49.669 56.153,49.771 56.508,49.865 56.621 C 50.000 56.784,45.987 56.836,30.595 56.872 C 13.529 56.911,11.135 56.947,10.996 57.167 C 10.896 57.325,10.838 50.119,10.836 37.508 C 10.834 22.024,10.878 17.644,11.033 17.800 C 11.143 17.910,11.500 18.002,11.825 18.004 M321.833 18.225 C 321.833 18.391,321.436 18.476,320.341 18.547 C 319.376 18.610,318.574 18.766,318.070 18.989 C 317.193 19.377,312.833 19.518,312.833 19.158 C 312.833 18.909,311.900 18.557,310.875 18.420 C 308.743 18.133,310.344 18.000,315.917 18.000 C 320.777 18.000,321.833 18.040,321.833 18.225 M376.333 18.403 C 376.333 19.265,376.445 19.333,377.851 19.333 L 379.167 19.333 379.167 20.083 L 379.167 20.833 379.907 20.833 C 380.812 20.833,380.770 20.568,380.702 25.792 L 380.654 29.500 379.994 29.500 L 379.333 29.500 379.667 29.167 C 379.850 28.983,380.004 28.740,380.008 28.625 C 380.075 26.847,380.070 21.781,380.002 21.670 C 379.951 21.588,379.704 21.443,379.452 21.347 C 379.200 21.251,378.924 20.988,378.838 20.762 C 378.493 19.854,377.543 19.641,376.919 20.331 C 376.489 20.806,376.715 21.421,377.503 21.919 C 378.030 22.251,378.167 22.438,378.167 22.826 C 378.167 23.094,378.242 23.360,378.333 23.417 C 379.018 23.840,378.319 28.196,377.428 29.062 C 377.101 29.379,376.833 29.711,376.833 29.800 C 376.833 30.144,369.137 30.246,368.888 29.905 C 368.609 29.524,368.565 21.168,368.839 20.656 C 369.000 20.355,369.217 20.333,372.089 20.333 C 375.793 20.333,376.533 20.018,375.424 18.909 C 375.020 18.505,374.981 18.500,371.966 18.499 C 370.289 18.499,368.637 18.421,368.296 18.326 C 367.628 18.140,366.677 18.461,366.656 18.879 C 366.481 22.368,366.679 31.597,366.934 31.783 C 367.294 32.046,368.144 32.064,368.781 31.821 C 369.663 31.485,376.333 31.811,376.333 32.190 C 376.333 32.485,376.094 32.500,371.250 32.500 L 366.167 32.500 366.167 25.250 L 366.167 18.000 371.250 18.000 L 376.333 18.000 376.333 18.403 M70.500 18.494 C 70.271 18.571,68.110 18.641,65.698 18.650 C 61.621 18.665,61.254 18.692,60.491 19.020 C 58.609 19.829,60.063 20.167,65.433 20.167 C 69.808 20.167,69.827 20.168,70.060 20.542 C 70.255 20.854,70.311 23.655,70.394 37.378 C 70.493 53.775,70.495 53.843,70.854 54.678 L 71.214 55.516 71.586 54.883 C 71.956 54.254,71.959 54.187,72.062 44.750 C 72.243 28.171,72.246 18.846,72.070 18.670 C 71.829 18.429,70.979 18.334,70.500 18.494 M173.721 18.667 C 171.850 19.056,171.650 19.617,173.217 20.083 C 174.358 20.422,175.144 20.397,175.792 20.002 C 177.020 19.253,175.528 18.291,173.721 18.667 M150.500 20.000 C 150.500 20.956,150.481 21.000,150.083 21.000 C 149.671 21.000,149.422 19.466,149.778 19.111 C 150.215 18.674,150.500 19.025,150.500 20.000 M162.167 19.676 C 162.167 20.097,162.009 20.158,161.201 20.050 C 160.412 19.944,160.177 19.404,160.875 19.302 C 161.607 19.195,162.167 19.357,162.167 19.676 M323.990 20.214 C 323.234 20.803,323.841 21.956,324.788 21.732 C 325.390 21.590,326.001 21.029,325.884 20.726 C 325.667 20.159,324.473 19.837,323.990 20.214 M390.356 20.389 C 389.313 21.647,389.353 28.451,390.409 29.327 C 390.751 29.611,391.258 29.289,391.482 28.645 C 391.700 28.020,391.721 22.440,391.509 21.343 C 391.323 20.380,390.754 19.909,390.356 20.389 M284.038 20.951 C 283.153 21.282,283.276 23.333,284.181 23.333 C 284.605 23.333,285.175 22.506,285.067 22.045 C 284.938 21.487,284.331 20.842,284.038 20.951 M264.979 21.306 C 264.045 22.396,265.098 23.917,266.095 22.920 C 266.417 22.598,266.484 22.405,266.398 22.045 C 266.169 21.078,265.480 20.720,264.979 21.306 M14.157 22.640 C 14.292 22.941,14.563 23.218,14.775 23.271 C 15.607 23.480,15.578 23.031,15.667 36.978 L 15.750 50.071 16.189 50.317 C 16.583 50.538,16.673 50.534,17.064 50.278 L 17.500 49.992 17.500 37.854 C 17.500 26.056,17.560 23.667,17.857 23.667 C 17.936 23.667,18.000 30.036,18.000 37.821 C 18.000 50.467,18.028 52.004,18.262 52.238 C 18.496 52.472,20.033 52.500,32.679 52.500 C 45.512 52.500,47.184 52.544,46.792 52.868 C 46.769 52.887,40.662 52.943,33.220 52.993 C 17.705 53.097,18.803 52.978,18.699 54.558 L 18.648 55.333 16.173 55.333 L 13.698 55.333 13.432 54.554 C 13.082 53.527,13.022 22.545,13.369 22.198 C 13.661 21.906,13.884 22.030,14.157 22.640 M275.292 23.664 C 275.651 23.667,275.667 23.726,275.667 25.073 C 275.667 25.875,275.742 26.527,275.841 26.588 C 276.222 26.824,275.620 27.167,274.827 27.167 C 273.467 27.167,272.998 27.633,273.348 28.638 C 273.590 29.332,275.051 30.255,275.800 30.186 C 276.077 30.161,276.500 29.158,276.500 28.526 C 276.500 28.259,276.612 27.947,276.750 27.833 C 276.969 27.651,277.000 27.823,277.000 29.230 L 277.000 30.833 277.729 30.833 L 278.459 30.833 278.530 32.828 C 278.609 35.056,278.590 35.005,279.456 35.173 C 279.801 35.240,277.777 35.304,274.958 35.314 C 269.859 35.333,269.347 35.302,270.370 35.037 C 271.040 34.863,271.128 34.572,271.150 32.458 C 271.166 30.882,271.178 30.833,271.548 30.833 C 271.922 30.833,271.928 30.861,271.875 32.458 C 271.800 34.784,271.708 34.714,274.857 34.714 C 277.816 34.714,278.000 34.624,278.000 33.173 C 278.000 30.932,276.952 30.372,276.105 32.161 C 275.413 33.623,273.774 33.331,273.571 31.709 C 273.488 31.041,273.342 30.671,273.060 30.410 C 272.696 30.073,272.667 29.918,272.667 28.356 L 272.667 26.667 273.155 26.667 C 273.880 26.667,274.194 26.258,274.163 25.352 C 274.104 23.591,274.133 23.452,274.542 23.562 C 274.748 23.617,275.085 23.663,275.292 23.664 M191.774 25.698 C 191.061 26.807,190.864 40.177,191.546 41.216 C 191.964 41.854,192.461 41.801,192.759 41.089 C 193.147 40.160,193.097 27.406,192.701 26.261 C 192.372 25.309,192.121 25.157,191.774 25.698 M182.167 33.734 C 182.167 40.883,182.156 41.133,181.855 41.054 C 181.297 40.908,181.157 27.225,181.707 26.542 C 182.122 26.026,182.167 26.731,182.167 33.734 M145.644 27.345 C 145.252 28.080,145.250 28.110,145.250 33.833 C 145.250 39.557,145.252 39.587,145.644 40.321 L 146.037 41.059 146.342 40.655 C 146.909 39.904,147.000 38.962,147.000 33.833 C 147.000 28.705,146.909 27.763,146.342 27.012 L 146.037 26.607 145.644 27.345 M157.082 27.101 L 156.667 27.549 156.667 33.662 L 156.667 39.775 157.052 40.138 C 157.530 40.586,157.742 40.592,158.167 40.167 C 158.548 39.786,158.697 28.013,158.330 27.326 C 157.989 26.691,157.538 26.609,157.082 27.101 M219.123 26.875 C 218.327 27.479,218.544 28.831,219.459 28.968 C 220.228 29.083,220.577 27.854,219.988 27.106 C 219.596 26.608,219.506 26.584,219.123 26.875 M286.594 28.518 C 286.354 28.803,286.167 29.234,286.167 29.500 C 286.167 30.729,287.353 31.238,287.821 30.209 C 288.397 28.947,287.395 27.566,286.594 28.518 M262.132 28.458 C 261.247 29.476,262.232 31.101,263.167 30.167 C 263.566 29.768,263.589 29.322,263.246 28.658 C 262.959 28.104,262.509 28.024,262.132 28.458 M318.241 28.882 C 317.368 29.633,318.188 30.708,319.331 30.309 C 320.104 30.040,320.295 29.549,319.809 29.080 C 319.193 28.485,318.765 28.431,318.241 28.882 M379.167 30.250 L 379.167 31.000 378.153 31.000 C 376.956 31.000,376.897 30.763,377.964 30.244 C 378.348 30.058,378.753 29.814,378.864 29.703 C 379.157 29.409,379.167 29.426,379.167 30.250 M237.041 32.458 C 236.931 34.711,236.667 34.823,236.667 32.617 C 236.667 31.224,236.716 30.833,236.893 30.833 C 237.075 30.833,237.104 31.160,237.041 32.458 M303.000 31.250 C 303.000 31.583,302.917 31.667,302.583 31.667 C 302.250 31.667,302.167 31.583,302.167 31.250 C 302.167 30.917,302.250 30.833,302.583 30.833 C 302.917 30.833,303.000 30.917,303.000 31.250 M304.333 32.596 C 304.333 32.751,304.220 32.836,304.055 32.804 C 303.637 32.723,303.580 32.333,303.986 32.333 C 304.191 32.333,304.333 32.441,304.333 32.596 M324.833 33.667 C 324.833 33.758,324.721 33.833,324.583 33.833 C 324.446 33.833,324.333 33.758,324.333 33.667 C 324.333 33.575,324.446 33.500,324.583 33.500 C 324.721 33.500,324.833 33.575,324.833 33.667 M306.000 34.000 C 306.000 34.092,305.892 34.167,305.760 34.167 C 305.628 34.167,305.473 34.092,305.417 34.000 C 305.360 33.908,305.468 33.833,305.657 33.833 C 305.846 33.833,306.000 33.908,306.000 34.000 M386.804 34.111 C 386.723 34.529,386.333 34.587,386.333 34.181 C 386.333 33.976,386.441 33.833,386.596 33.833 C 386.751 33.833,386.836 33.947,386.804 34.111 M326.333 35.083 C 326.507 35.292,326.483 35.333,326.187 35.333 C 325.984 35.333,325.833 35.227,325.833 35.083 C 325.833 34.946,325.899 34.833,325.980 34.833 C 326.060 34.833,326.219 34.946,326.333 35.083 M259.260 35.685 C 259.021 35.969,258.833 36.401,258.833 36.667 C 258.833 37.896,260.020 38.404,260.488 37.376 C 261.063 36.114,260.061 34.733,259.260 35.685 M385.667 35.327 C 385.667 35.476,385.145 35.833,384.928 35.833 C 384.876 35.833,384.833 35.683,384.833 35.500 C 384.833 35.256,384.944 35.167,385.250 35.167 C 385.479 35.167,385.667 35.239,385.667 35.327 M327.667 36.417 C 327.837 36.621,327.825 36.667,327.604 36.667 C 327.455 36.667,327.333 36.554,327.333 36.417 C 327.333 36.279,327.362 36.167,327.396 36.167 C 327.431 36.167,327.553 36.279,327.667 36.417 M290.949 39.992 C 290.140 40.954,290.509 42.231,291.505 41.915 C 292.424 41.623,292.581 40.782,291.866 39.982 L 291.398 39.458 290.949 39.992 M374.167 40.303 C 372.702 41.106,373.807 41.999,376.267 42.000 C 378.707 42.000,379.671 41.429,378.764 40.521 C 378.163 39.919,375.129 39.776,374.167 40.303 M331.173 42.156 C 330.686 43.064,331.134 46.814,331.706 46.627 C 332.408 46.399,332.837 42.815,332.241 42.156 C 331.867 41.743,331.393 41.743,331.173 42.156 M256.428 42.850 C 255.855 43.531,256.095 45.333,256.759 45.333 C 257.788 45.333,258.069 43.472,257.167 42.631 C 256.870 42.354,256.837 42.364,256.428 42.850 M321.667 44.583 C 321.667 45.821,321.599 46.833,321.517 46.833 C 321.205 46.833,320.951 44.070,321.182 43.171 C 321.532 41.805,321.667 42.197,321.667 44.583 M147.012 42.939 C 146.516 43.569,146.821 45.333,147.425 45.333 C 148.434 45.333,148.764 43.165,147.831 42.665 C 147.409 42.440,147.403 42.442,147.012 42.939 M189.744 44.364 C 190.123 45.642,190.088 46.000,189.583 46.000 C 189.176 46.000,189.167 45.972,189.167 44.750 C 189.167 43.290,189.382 43.146,189.744 44.364 M282.833 44.950 C 282.833 46.132,282.680 46.186,282.341 45.125 C 282.231 44.781,282.053 44.493,281.945 44.485 C 281.838 44.476,278.394 44.482,274.292 44.499 C 266.835 44.528,266.833 44.528,266.833 44.181 C 266.833 43.833,266.837 43.833,274.833 43.833 L 282.833 43.833 282.833 44.950 M342.537 44.873 C 341.664 45.316,341.665 45.352,342.567 45.790 C 343.266 46.130,343.312 46.133,343.567 45.852 C 344.289 45.053,343.555 44.355,342.537 44.873 M159.747 45.389 C 159.887 45.603,160.187 45.877,160.413 45.998 C 160.639 46.119,160.908 46.470,161.009 46.779 C 161.120 47.113,161.387 47.438,161.670 47.585 C 162.495 48.012,162.418 48.167,161.380 48.167 L 160.408 48.167 160.471 47.500 L 160.535 46.833 159.768 46.833 L 159.000 46.833 159.000 45.917 C 159.000 44.894,159.289 44.690,159.747 45.389 M300.862 46.252 C 299.971 47.384,301.666 48.199,302.673 47.123 L 303.023 46.750 302.476 46.292 C 301.796 45.722,301.288 45.709,300.862 46.252 M59.000 46.500 C 59.000 46.722,58.889 46.833,58.667 46.833 C 58.444 46.833,58.333 46.722,58.333 46.500 C 58.333 46.278,58.444 46.167,58.667 46.167 C 58.889 46.167,59.000 46.278,59.000 46.500 M293.949 46.964 C 293.516 47.443,293.312 48.149,293.504 48.507 C 294.169 49.750,295.544 48.813,294.996 47.490 C 294.713 46.808,294.285 46.593,293.949 46.964 M340.333 47.500 L 340.333 48.167 339.667 48.167 L 339.000 48.167 339.000 48.917 C 339.000 49.658,338.993 49.667,338.437 49.667 C 337.519 49.667,337.488 49.796,337.538 53.438 L 337.583 56.750 338.308 56.802 L 339.032 56.854 338.974 57.552 L 338.917 58.250 339.917 58.167 C 340.467 58.121,342.079 58.121,343.500 58.167 L 346.083 58.250 346.025 57.542 L 345.966 56.833 346.726 56.833 L 347.486 56.833 347.486 53.420 C 347.486 49.570,347.355 48.938,346.490 48.612 C 346.221 48.510,346.000 48.368,346.000 48.297 C 346.000 48.225,345.700 48.167,345.333 48.167 L 344.667 48.167 344.667 47.500 L 344.667 46.833 342.500 46.833 L 340.333 46.833 340.333 47.500 M216.085 49.028 C 215.543 49.455,215.555 49.963,216.125 50.643 L 216.583 51.189 216.956 50.840 C 218.032 49.832,217.218 48.138,216.085 49.028 M186.804 49.945 C 186.723 50.363,186.333 50.420,186.333 50.014 C 186.333 49.809,186.441 49.667,186.596 49.667 C 186.751 49.667,186.836 49.780,186.804 49.945 M348.407 50.404 C 348.113 50.619,348.084 50.854,348.088 52.946 C 348.093 55.492,348.234 56.000,348.931 56.000 C 349.601 56.000,349.833 55.196,349.833 52.876 C 349.833 50.361,349.426 49.656,348.407 50.404 M335.689 50.556 C 335.588 50.679,335.391 51.100,335.252 51.494 C 334.521 53.567,335.628 56.397,336.594 54.923 C 337.530 53.495,336.675 49.368,335.689 50.556 M285.667 52.000 C 285.667 53.078,285.640 53.167,285.313 53.167 C 284.702 53.167,285.009 50.874,285.625 50.836 C 285.648 50.834,285.667 51.358,285.667 52.000 M153.333 51.347 C 153.333 51.753,152.944 51.696,152.863 51.278 C 152.831 51.113,152.916 51.000,153.071 51.000 C 153.226 51.000,153.333 51.142,153.333 51.347 M154.833 52.833 C 154.833 53.078,154.722 53.167,154.417 53.167 C 154.111 53.167,154.000 53.078,154.000 52.833 C 154.000 52.589,154.111 52.500,154.417 52.500 C 154.722 52.500,154.833 52.589,154.833 52.833 M156.167 54.151 C 156.167 54.387,156.081 54.446,155.833 54.382 C 155.650 54.334,155.500 54.191,155.500 54.064 C 155.500 53.937,155.650 53.833,155.833 53.833 C 156.050 53.833,156.167 53.944,156.167 54.151 M182.667 54.066 C 182.667 54.193,182.548 54.343,182.403 54.399 C 182.021 54.546,182.000 54.534,182.000 54.167 C 182.000 53.944,182.111 53.833,182.333 53.833 C 182.517 53.833,182.667 53.938,182.667 54.066 M56.153 55.439 C 56.191 55.473,56.022 55.500,55.778 55.500 C 55.489 55.500,55.333 55.410,55.333 55.244 C 55.333 55.011,55.786 55.119,56.153 55.439 M181.167 55.403 C 181.167 55.853,180.895 56.000,180.066 56.000 C 179.278 56.000,179.167 55.959,179.167 55.667 C 179.167 55.370,179.278 55.333,180.167 55.333 C 180.717 55.333,181.167 55.365,181.167 55.403 M57.500 56.500 C 57.500 56.722,57.389 56.833,57.167 56.833 C 56.944 56.833,56.833 56.722,56.833 56.500 C 56.833 56.278,56.944 56.167,57.167 56.167 C 57.389 56.167,57.500 56.278,57.500 56.500 M163.392 57.125 C 163.271 57.582,159.833 57.598,159.833 57.142 C 159.833 56.861,159.994 56.833,161.651 56.833 C 163.300 56.833,163.462 56.860,163.392 57.125 M74.060 57.654 C 73.346 58.089,73.292 58.226,73.672 58.634 C 74.724 59.763,79.632 59.181,79.001 58.002 C 78.611 57.273,75.091 57.025,74.060 57.654 M103.083 57.484 C 101.336 58.236,102.434 59.167,105.069 59.167 C 107.466 59.167,108.438 58.637,107.560 57.811 C 107.109 57.387,103.860 57.150,103.083 57.484 M131.733 57.571 C 131.068 57.861,130.939 58.221,131.327 58.700 C 132.101 59.657,136.276 59.079,135.888 58.069 C 135.620 57.371,132.932 57.049,131.733 57.571 M202.709 57.740 C 202.112 58.243,202.195 58.641,202.971 58.994 C 203.674 59.315,206.628 59.028,207.027 58.600 C 207.449 58.147,206.817 57.501,205.949 57.499 C 205.656 57.498,204.927 57.451,204.329 57.395 C 203.317 57.299,203.204 57.323,202.709 57.740 M319.191 57.792 L 318.644 58.250 318.993 58.623 C 319.185 58.828,319.528 59.043,319.755 59.099 C 320.328 59.243,320.928 59.063,321.339 58.623 L 321.686 58.250 321.174 57.792 C 320.876 57.525,320.468 57.333,320.199 57.333 C 319.939 57.333,319.499 57.533,319.191 57.792 M221.956 57.861 L 221.551 58.222 221.889 58.611 C 222.503 59.318,226.118 59.087,226.598 58.310 C 227.041 57.593,222.726 57.176,221.956 57.861 M243.213 58.289 C 243.652 58.324,244.327 58.323,244.713 58.288 C 245.100 58.254,244.742 58.225,243.917 58.226 C 243.092 58.226,242.775 58.255,243.213 58.289 M307.917 58.993 C 305.933 59.181,305.416 59.749,306.759 60.262 C 307.932 60.710,315.231 60.719,316.384 60.274 C 319.072 59.237,313.778 58.436,307.917 58.993 M340.875 59.165 C 339.539 59.979,340.984 60.824,343.339 60.606 C 344.961 60.455,345.498 60.122,345.233 59.432 C 344.983 58.781,341.823 58.587,340.875 59.165 M165.542 59.248 C 165.244 59.378,165.000 59.594,165.000 59.728 C 165.000 60.812,172.940 60.791,173.294 59.706 C 173.516 59.024,166.950 58.636,165.542 59.248 M8.446 63.119 C 7.434 63.274,7.048 64.024,7.684 64.599 C 8.053 64.933,57.031 65.118,58.204 64.790 C 58.954 64.580,59.120 64.044,58.597 63.521 L 58.159 63.083 33.538 63.065 C 19.996 63.055,8.705 63.079,8.446 63.119 " stroke="none" fill="#ffffff" fill-rule="evenodd"></path></g></svg>