<?xml version="1.0" standalone="no"?>
<!DOCTYPE svg PUBLIC "-//W3C//DTD SVG 20010904//EN"
 "http://www.w3.org/TR/2001/REC-SVG-20010904/DTD/svg10.dtd">
<svg version="1.0" xmlns="http://www.w3.org/2000/svg"
 width="409.000000pt" height="300.000000pt" viewBox="0 0 409.000000 300.000000"
 preserveAspectRatio="xMidYMid meet">
<metadata>
Created by potrace 1.15, written by Peter Selinger 2001-2017
</metadata>
<g transform="translate(0.000000,300.000000) scale(0.100000,-0.100000)"
fill="#000000" stroke="none">
<path d="M320 2780 c-124 -3 -231 -9 -238 -13 -7 -5 -13 -35 -14 -80 l-2 -72
-6 75 -7 75 1 -75 c1 -59 4 -75 16 -75 8 -1 14 -5 13 -10 -1 -6 26 -9 63 -7
l64 4 3 -394 2 -393 5 400 5 400 5 -400 5 -400 83 -3 c62 -2 82 0 82 10 0 9 2
10 8 1 6 -10 6 183 -1 620 l-2 159 77 -4 c42 -1 71 0 65 4 -9 6 -9 8 1 8 8 0
12 23 12 80 0 57 -4 80 -12 80 -9 0 -8 4 2 10 8 5 11 9 5 8 -5 -1 -111 -5
-235 -8z"/>
<path d="M683 2778 c9 -6 9 -8 0 -8 -10 0 -13 -103 -13 -480 l0 -480 85 0 85
0 0 200 0 200 70 0 70 0 0 -184 c0 -101 3 -192 7 -202 5 -13 3 -15 -8 -9 -12
8 -12 6 0 -8 11 -14 29 -17 95 -15 l81 2 -85 6 -85 6 85 4 85 5 3 477 2 477
-32 5 c-89 14 -138 13 -150 -2 -11 -13 -10 -14 1 -7 11 6 13 4 8 -9 -4 -10 -7
-98 -7 -197 l0 -179 -70 0 -70 0 0 194 c0 123 -4 196 -10 199 -6 3 -5 4 2 3
10 -2 14 -49 16 -194 l2 -192 60 0 60 0 -2 183 -3 182 -2 -177 -3 -178 -50 0
-50 0 0 184 c0 125 -4 187 -11 192 -6 3 -49 7 -94 8 -46 0 -78 -2 -72 -6z"/>
<path d="M1373 2774 c-17 -9 -40 -25 -50 -37 -10 -11 -12 -17 -4 -12 7 4 12 4
9 -1 -40 -83 -39 -70 -36 -448 3 -325 5 -365 21 -389 19 -30 22 -41 7 -32 -16
10 -11 -1 7 -16 14 -12 16 -12 9 0 -6 9 -4 12 5 9 8 -3 14 -10 14 -15 0 -6 4
-15 9 -20 6 -5 6 -2 1 6 -7 11 -4 12 11 5 10 -5 87 -9 171 -9 90 0 143 -3 130
-8 -12 -5 -83 -7 -159 -5 -75 2 -131 0 -125 -4 16 -10 266 -9 292 1 11 5 20
14 20 21 0 7 6 15 14 18 9 3 11 0 7 -9 -4 -8 6 0 23 18 l30 32 0 410 c0 289
-3 410 -11 408 -6 -1 -13 4 -16 12 -3 9 0 11 9 7 8 -5 -3 8 -23 28 -21 20 -43
36 -50 36 -7 0 1 -9 18 -19 18 -11 35 -24 39 -30 3 -6 -10 0 -29 13 -66 44
-270 47 -352 5 l-39 -20 25 20 c14 11 43 25 65 30 28 6 33 9 15 10 -14 0 -39
-7 -57 -15z m221 -170 c14 -5 16 -42 16 -314 0 -344 6 -320 -75 -320 -77 0
-75 -7 -73 323 l3 292 2 -289 c2 -199 7 -294 15 -303 16 -19 110 -14 115 7 4
12 3 12 -5 2 -6 -9 -26 -12 -58 -10 l-49 3 0 295 0 295 49 3 c32 2 52 -1 58
-10 7 -10 9 -10 5 2 -3 11 -19 15 -64 15 -34 0 -59 3 -56 8 5 8 95 10 117 1z"/>
<path d="M1930 2781 c15 -11 14 -11 -22 -15 -10 -1 -14 -104 -16 -470 -3 -550
-12 -507 107 -504 l76 2 -75 3 c-41 2 -80 9 -87 15 -10 8 -13 106 -11 482 l3
471 5 -475 5 -475 83 -3 82 -3 1 273 0 273 58 -263 c32 -145 63 -268 68 -273
6 -6 32 -9 59 -7 l49 3 55 250 55 249 5 -249 c3 -138 7 -251 8 -252 1 -2 38
-3 82 -3 74 0 80 2 85 23 3 12 4 227 3 479 -2 302 0 454 7 451 6 -3 3 1 -5 9
-12 12 -34 13 -114 8 -64 -4 -101 -10 -104 -18 -2 -7 -8 -10 -13 -7 -5 4 -6
-1 -3 -9 6 -15 -103 -525 -115 -539 -4 -4 -34 115 -67 265 -40 184 -65 278
-76 290 -14 14 -34 18 -92 18 -41 0 -83 3 -93 6 -15 5 -15 4 -3 -5z"/>
<path d="M2917 2771 c-10 -12 -9 -13 2 -7 10 6 12 4 7 -10 -12 -41 -196 -904
-196 -923 0 -19 6 -21 80 -21 93 0 89 -4 110 118 l12 72 103 0 102 0 6 -42 c3
-24 11 -67 17 -95 l12 -53 84 0 c73 0 84 2 84 18 0 46 -199 936 -212 943 -9 6
-9 9 -1 9 7 0 17 -8 22 -17 6 -10 11 -13 11 -6 0 21 -20 25 -127 27 -80 1
-107 -2 -116 -13z m109 -347 c-21 -101 -19 -129 3 -35 l17 75 22 -126 c12 -70
25 -140 28 -157 l7 -31 -67 0 c-47 0 -66 4 -66 13 0 7 14 87 30 177 17 90 30
169 31 175 0 5 3 4 6 -2 2 -7 -3 -47 -11 -89z"/>
<path d="M3630 2776 c-3 -2 -30 -7 -59 -10 -38 -3 -60 -11 -75 -27 -12 -12
-15 -19 -8 -15 17 10 15 0 -5 -31 -15 -23 -19 -56 -21 -211 -3 -141 -1 -187
10 -200 12 -15 11 -16 -4 -3 -15 11 -18 36 -21 190 l-2 176 -3 -176 -2 -176
27 -24 c14 -13 23 -18 18 -10 -5 10 -3 12 11 7 11 -3 78 -25 149 -49 l130 -44
3 -74 c5 -118 3 -120 -71 -117 l-62 3 -1 68 0 67 3 -65 4 -66 57 3 57 3 3 85
3 85 -116 39 c-64 21 -118 36 -120 34 -2 -2 47 -21 110 -42 l115 -37 0 -80 0
-79 -50 0 -49 0 -3 63 c-2 47 -7 62 -18 62 -8 1 -14 5 -13 10 1 10 -100 9
-144 0 -22 -5 -23 -10 -23 -93 0 -104 12 -151 45 -182 13 -12 22 -26 20 -31
-3 -4 0 -11 6 -15 8 -5 9 -3 4 6 -6 10 -4 11 11 4 10 -5 87 -9 171 -9 90 0
143 -3 130 -8 -12 -5 -83 -7 -159 -5 -75 2 -131 0 -125 -4 16 -10 266 -9 292
1 11 5 20 14 20 21 0 7 6 15 14 18 9 3 11 0 7 -9 -4 -8 6 0 22 17 l29 31 2
205 c2 159 -1 207 -11 215 -7 6 -77 32 -156 58 l-143 47 3 96 3 97 59 3 c71 4
76 -1 76 -85 0 -44 4 -63 13 -63 9 0 9 -2 0 -8 -6 -4 26 -7 72 -7 46 0 78 3
72 7 -9 6 -8 8 1 8 11 0 13 26 11 124 -2 69 -7 124 -12 123 -5 -1 -12 4 -15
12 -3 9 0 11 9 6 8 -4 0 7 -17 25 l-31 32 -124 5 c-68 2 -126 2 -129 -1z"/>
<path d="M2622 2297 c-1 -292 -6 -465 -12 -478 -9 -16 -22 -19 -90 -19 -68 0
-81 3 -90 19 -6 12 -10 101 -11 213 -1 184 -1 191 -14 138 -15 -59 -18 -102
-5 -60 5 15 8 -34 9 -125 1 -194 2 -195 111 -195 72 0 81 2 95 23 13 21 15 84
12 483 l-2 459 -3 -458z"/>
<path d="M89 1596 c-5 -6 -8 -198 -7 -490 l3 -481 5 484 c4 381 8 485 18 487
7 1 8 0 2 -3 -7 -3 -10 -167 -10 -484 l0 -479 85 0 85 0 0 159 0 159 109 4
c122 3 148 14 186 79 18 31 20 52 20 229 0 187 -5 265 -17 265 -12 0 -47 38
-43 46 3 4 0 11 -6 15 -8 5 -9 3 -4 -6 6 -10 4 -11 -11 -5 -56 23 -395 40
-415 21z m251 -466 l60 0 0 140 c0 127 -2 140 -17 139 -11 0 -13 -3 -5 -6 9
-3 12 -40 12 -134 l0 -129 -50 0 -50 0 0 140 0 141 58 -3 57 -3 0 -145 0 -145
-67 -3 -68 -3 2 158 2 158 3 -152 4 -153 59 0z"/>
<path d="M897 1591 c-10 -12 -9 -13 2 -7 10 6 12 4 7 -10 -12 -41 -196 -904
-196 -923 0 -19 6 -21 80 -21 93 0 89 -4 110 118 l12 72 103 0 102 0 6 -42 c3
-24 11 -67 17 -95 l12 -53 84 0 c73 0 84 2 84 18 0 46 -199 936 -212 943 -9 6
-9 9 -1 9 7 0 17 -8 22 -17 6 -10 11 -13 11 -6 0 21 -20 25 -127 27 -80 1
-107 -2 -116 -13z m109 -347 c-21 -101 -19 -129 3 -35 l17 75 22 -126 c12 -70
25 -140 28 -157 l7 -31 -67 0 c-47 0 -66 4 -66 13 0 7 14 87 30 177 17 90 30
169 31 175 0 5 3 4 6 -2 2 -7 -3 -47 -11 -89z"/>
<path d="M1550 1603 c-25 -2 -60 -6 -78 -9 l-32 -5 2 -477 3 -477 87 0 c107 0
102 -13 -7 -18 l-80 -3 82 -2 c47 -1 85 2 88 8 4 6 6 122 6 258 l0 247 88
-245 88 -245 81 -3 82 -3 0 480 c0 317 -3 481 -10 484 -6 3 -5 4 2 3 10 -2 14
-106 18 -487 l5 -484 3 482 c1 355 -1 484 -10 489 -15 10 -167 11 -161 2 2 -5
-1 -8 -6 -8 -7 0 -12 -85 -13 -249 l-3 -250 -89 250 c-49 137 -93 249 -98 249
-5 0 -6 5 -3 10 3 6 5 9 3 8 -2 -1 -23 -3 -48 -5z"/>
<path d="M2485 1599 c22 -5 51 -19 65 -30 22 -17 19 -17 -20 3 -40 21 -59 23
-180 23 -151 0 -184 -11 -227 -73 -31 -46 -35 -113 -31 -467 3 -289 4 -312 23
-344 42 -71 58 -76 233 -76 86 0 166 4 176 9 15 7 18 6 11 -5 -5 -8 -5 -11 1
-6 5 5 9 14 9 20 0 5 6 12 14 15 9 3 11 0 5 -9 -7 -12 -5 -12 9 0 19 15 23 26
6 15 -7 -4 -10 -3 -7 2 38 79 38 81 36 282 l-3 197 -123 3 -123 3 3 -83 3 -83
38 -3 38 -3 -3 -92 -3 -92 -80 0 -80 0 0 305 0 305 80 0 80 0 3 -73 3 -73 82
3 82 3 3 92 c3 89 0 103 -36 177 -3 5 2 5 9 1 8 -5 6 1 -4 13 -24 27 -78 52
-109 51 -15 -1 -9 -4 17 -10z"/>
<path d="M165 301 c19 -9 19 -10 -2 -10 -17 -1 -23 -11 -33 -51 -7 -27 -15
-50 -19 -50 -4 0 -13 23 -20 50 -10 38 -17 50 -32 50 -24 0 -24 0 7 -92 32
-98 54 -105 80 -25 9 28 19 47 21 41 2 -6 -5 -32 -17 -58 -16 -39 -24 -47 -42
-44 -19 2 -28 18 -52 86 -16 45 -30 81 -32 79 -9 -9 52 -161 69 -171 22 -14
45 0 68 43 l17 32 7 -30 c5 -23 12 -31 29 -31 19 0 26 11 45 73 13 39 26 78
29 86 4 10 -1 13 -21 9 -15 -3 -24 -1 -21 3 3 5 13 9 22 10 11 0 12 2 4 6 -16
6 -44 -16 -36 -29 3 -5 0 -31 -7 -58 l-13 -50 -17 57 c-10 31 -17 61 -16 67 1
5 -7 11 -18 13 l-20 3 20 -9z"/>
<path d="M825 301 c28 -4 59 -12 70 -20 l20 -13 -20 8 c-11 4 -44 10 -72 12
l-53 4 0 -87 0 -87 64 4 c43 2 63 0 59 -7 -4 -5 6 1 20 14 26 24 36 37 18 27
-5 -3 -6 14 -4 38 3 26 1 46 -6 50 -6 4 -11 12 -11 17 0 6 5 7 10 4 6 -3 10
-4 10 0 0 17 -69 45 -110 44 l-45 -2 50 -6z"/>
<path d="M1748 300 c48 -11 50 -19 3 -13 -35 5 -44 2 -72 -26 -32 -32 -35 -55
-14 -105 7 -15 5 -17 -6 -11 -11 6 -12 5 -2 -5 7 -7 27 -15 45 -17 18 -2 37
-8 42 -13 6 -6 17 -10 26 -9 10 0 9 3 -5 9 -11 5 -15 9 -8 9 6 1 19 4 29 8 13
5 15 3 10 -8 -4 -8 6 1 24 19 25 27 31 41 28 70 -2 20 -6 35 -9 32 -10 -7 -50
31 -43 41 7 11 -30 29 -58 28 -17 -1 -15 -3 10 -9z"/>
<path d="M1927 301 c70 -9 77 -19 8 -13 l-55 4 0 -86 c0 -79 2 -86 20 -86 13
0 20 7 20 18 0 13 11 21 37 28 48 11 71 51 51 86 -7 13 -12 27 -13 31 0 16
-31 27 -75 25 l-45 -1 52 -6z"/>
<path d="M2287 301 c73 -9 75 -18 3 -13 l-60 4 0 -86 c0 -79 2 -86 20 -86 14
0 20 7 20 23 0 16 6 23 19 23 11 0 25 -11 32 -23 7 -13 22 -23 34 -23 30 0 36
9 24 32 -8 14 -8 23 0 31 6 6 11 18 11 26 0 9 -7 3 -15 -12 -11 -22 -12 -34
-4 -50 10 -21 10 -21 -5 -3 -19 23 -20 32 -6 41 6 3 10 23 11 43 0 31 2 34 10
17 l9 -20 -3 20 c-1 11 -9 20 -17 20 -8 0 -15 6 -15 13 0 21 -27 32 -75 30
l-45 -1 52 -6z"/>
<path d="M320 205 l0 -85 65 0 c51 0 65 3 65 15 0 11 -12 15 -45 15 -36 0 -45
3 -45 18 0 14 7 17 40 14 35 -4 40 -2 40 17 0 18 -6 21 -40 21 -29 0 -40 4
-40 15 0 11 12 15 45 15 38 0 45 3 45 20 0 18 -7 20 -65 20 l-65 0 0 -85z"/>
<path d="M500 204 l0 -86 64 4 c43 2 63 0 60 -7 -3 -5 4 1 15 14 12 13 21 31
21 40 -1 9 -7 3 -15 -14 l-14 -30 6 31 c3 18 0 35 -6 38 -6 4 -8 20 -4 38 8
41 -15 58 -79 58 l-48 0 0 -86z"/>
<path d="M980 205 l0 -85 65 0 c51 0 65 3 65 15 0 11 -13 15 -52 17 l-53 1 50
7 50 7 -45 3 -45 3 38 4 c28 3 37 9 37 23 0 15 -9 20 -42 23 l-43 4 50 3 50 3
-45 7 -45 7 43 1 c35 2 42 5 42 22 0 18 -7 20 -60 20 l-60 0 0 -85z"/>
<path d="M1340 205 l0 -85 65 0 c51 0 65 3 65 15 0 11 -12 15 -45 15 -33 0
-45 4 -45 15 0 10 11 15 35 15 28 0 35 4 35 20 0 16 -7 20 -35 20 -24 0 -35 5
-35 15 0 11 11 15 40 15 33 0 40 3 40 20 0 18 -7 20 -60 20 l-60 0 0 -85z"/>
<path d="M2060 205 l0 -85 65 0 c51 0 65 3 65 15 0 11 -13 15 -52 17 l-53 1
50 7 50 7 -45 3 -45 3 38 4 c28 3 37 9 37 23 0 15 -9 20 -42 23 l-43 4 50 3
50 3 -45 7 -45 7 43 1 c35 2 42 5 42 22 0 18 -7 20 -60 20 l-60 0 0 -85z"/>
</g>
</svg>
