<?xml version="1.0" encoding="iso-8859-1"?>
<!-- Generator: Adobe Illustrator 19.2.1, SVG Export Plug-In . SVG Version: 6.00 Build 0)  -->
<svg version="1.1" xmlns="http://www.w3.org/2000/svg" xmlns:xlink="http://www.w3.org/1999/xlink" x="0px" y="0px"
	 viewBox="0 0 64 64" style="enable-background:new 0 0 64 64;" xml:space="preserve">
<g id="idea-creative-positive-thinking">
	<path style="fill:none;stroke:#443027;stroke-width:2;stroke-linejoin:round;stroke-miterlimit:10;" d="M63,64V45V33V22.5
		C63,10.626,53.374,1,41.5,1h0C29.626,1,20,10.626,20,22.5V36h5v13h15v15"/>
	<path style="fill:none;stroke:#443027;stroke-width:2;stroke-linejoin:round;stroke-miterlimit:10;" d="M50,15
		c0-4.722-4.091-8.488-8.922-7.948c-3.615,0.404-6.574,3.329-7.017,6.94c-0.267,2.178,0.345,4.208,1.526,5.787
		C36.453,20.936,37,22.299,37,23.744V24c0,2.761,2.239,5,5,5h0c2.761,0,5-2.239,5-5v-0.26c0-1.43,0.525-2.788,1.387-3.928
		C49.399,18.473,50,16.808,50,15z"/>
	
		<rect x="39" y="29" style="fill:none;stroke:#443027;stroke-width:2;stroke-linejoin:round;stroke-miterlimit:10;" width="6" height="4"/>
	<g>
		
			<circle style="fill:none;stroke:#443027;stroke-width:2;stroke-linejoin:round;stroke-dasharray:2.0101,2.0101;" cx="42.379" cy="20" r="16"/>
	</g>
	<polygon style="fill:none;stroke:#443027;stroke-width:2;stroke-linejoin:round;stroke-miterlimit:10;" points="40,20 40,14 42,15 
		44,14 44,20 	"/>
	
		<line style="fill:none;stroke:#443027;stroke-width:2;stroke-linejoin:round;stroke-miterlimit:10;" x1="42" y1="29" x2="42" y2="20"/>
	
		<line style="fill:none;stroke:#443027;stroke-width:2;stroke-linejoin:round;stroke-miterlimit:10;" x1="0" y1="10" x2="8" y2="10"/>
	
		<line style="fill:none;stroke:#443027;stroke-width:2;stroke-linejoin:round;stroke-miterlimit:10;" x1="4" y1="6" x2="4" y2="14"/>
	
		<line style="fill:none;stroke:#443027;stroke-width:2;stroke-linejoin:round;stroke-miterlimit:10;" x1="13" y1="3" x2="19" y2="3"/>
	
		<line style="fill:none;stroke:#443027;stroke-width:2;stroke-linejoin:round;stroke-miterlimit:10;" x1="16" y1="0" x2="16" y2="6"/>
	
		<line style="fill:none;stroke:#443027;stroke-width:2;stroke-linejoin:round;stroke-miterlimit:10;" x1="10" y1="15" x2="16" y2="15"/>
	
		<line style="fill:none;stroke:#443027;stroke-width:2;stroke-linejoin:round;stroke-miterlimit:10;" x1="13" y1="12" x2="13" y2="18"/>
	
		<line style="fill:none;stroke:#443027;stroke-width:2;stroke-linejoin:round;stroke-miterlimit:10;" x1="4" y1="35" x2="4" y2="63"/>
	
		<line style="fill:none;stroke:#443027;stroke-width:2;stroke-linejoin:round;stroke-miterlimit:10;" x1="14" y1="38" x2="14" y2="56"/>
	
		<line style="fill:none;stroke:#443027;stroke-width:2;stroke-linejoin:round;stroke-miterlimit:10;" x1="4" y1="29" x2="4" y2="33"/>
	
		<line style="fill:none;stroke:#443027;stroke-width:2;stroke-linejoin:round;stroke-miterlimit:10;" x1="4" y1="23" x2="4" y2="27"/>
	
		<line style="fill:none;stroke:#443027;stroke-width:2;stroke-linejoin:round;stroke-miterlimit:10;" x1="14" y1="36" x2="14" y2="30"/>
	
		<line style="fill:none;stroke:#443027;stroke-width:2;stroke-linejoin:round;stroke-miterlimit:10;" x1="9" y1="41" x2="9" y2="29"/>
	
		<line style="fill:none;stroke:#443027;stroke-width:2;stroke-linejoin:round;stroke-miterlimit:10;" x1="40" y1="63" x2="32" y2="63"/>
	
		<line style="fill:none;stroke:#443027;stroke-width:2;stroke-linejoin:round;stroke-miterlimit:10;" x1="38" y1="49" x2="44" y2="49"/>
</g>

</svg>
